HIERARCHY
ROOT Hips
{
  OFFSET -243.822 75.5439 913.479
  CHANNELS 6 Xposition Yposition Zposition Zrotation Xrotation Yrotation
  JOINT Spine
  {
    OFFSET 0 8 0
    CHANNELS 6 Xposition Yposition Zposition Zrotation Xrotation Yrotation
    JOINT Spine1
    {
      OFFSET 0 8 0
      CHANNELS 6 Xposition Yposition Zposition Zrotation Xrotation Yrotation
      JOINT Spine2
      {
        OFFSET 0 8 0
        CHANNELS 6 Xposition Yposition Zposition Zrotation Xrotation Yrotation
        JOINT Spine3
        {
          OFFSET 0 8 0
          CHANNELS 6 Xposition Yposition Zposition Zrotation Xrotation Yrotation
          JOINT Neck
          {
            OFFSET 0 17 0
            CHANNELS 6 Xposition Yposition Zposition Zrotation Xrotation Yrotation
            JOINT Head
            {
              OFFSET 0 10.8 0
              CHANNELS 6 Xposition Yposition Zposition Zrotation Xrotation Yrotation
              End Site
              {
                OFFSET 0 20.25 0
              }
            }
          }
          JOINT LeftShoulder
          {
            OFFSET 5 17 0
            CHANNELS 6 Xposition Yposition Zposition Zrotation Xrotation Yrotation
            JOINT LeftShoulder2
            {
              OFFSET 6.45 0 0
              CHANNELS 6 Xposition Yposition Zposition Zrotation Xrotation Yrotation
              JOINT LeftArm
              {
                OFFSET 6.45 0 0
                CHANNELS 6 Xposition Yposition Zposition Zrotation Xrotation Yrotation
                JOINT LeftForeArm
                {
                  OFFSET 0 -32.4 -2
                  CHANNELS 6 Xposition Yposition Zposition Zrotation Xrotation Yrotation
                  JOINT LeftHand
                  {
                    OFFSET 0 -25.65 2
                    CHANNELS 6 Xposition Yposition Zposition Zrotation Xrotation Yrotation
                    JOINT LeftHandThumb1
                    {
                      OFFSET -0.5 -1.5 2.65
                      CHANNELS 6 Xposition Yposition Zposition Zrotation Xrotation Yrotation
                      JOINT LeftHandThumb2
                      {
                        OFFSET 0 -3.8 3.7
                        CHANNELS 6 Xposition Yposition Zposition Zrotation Xrotation Yrotation
                        JOINT LeftHandThumb3
                        {
                          OFFSET 0 -3 2.7
                          CHANNELS 6 Xposition Yposition Zposition Zrotation Xrotation Yrotation
                          End Site
                          {
                            OFFSET 0 -2.3 1.8
                          }
                        }
                      }
                    }
                    JOINT LeftHandIndex
                    {
                      OFFSET 0 -1.9 1.6
                      CHANNELS 6 Xposition Yposition Zposition Zrotation Xrotation Yrotation
                      JOINT LeftHandIndex1
                      {
                        OFFSET 0 -8.3 1.9
                        CHANNELS 6 Xposition Yposition Zposition Zrotation Xrotation Yrotation
                        JOINT LeftHandIndex2
                        {
                          OFFSET 0 -4.5 0
                          CHANNELS 6 Xposition Yposition Zposition Zrotation Xrotation Yrotation
                          JOINT LeftHandIndex3
                          {
                            OFFSET 0 -3.4 0
                            CHANNELS 6 Xposition Yposition Zposition Zrotation Xrotation Yrotation
                            End Site
                            {
                              OFFSET 0 -2.6 0
                            }
                          }
                        }
                      }
                    }
                    JOINT LeftHandMiddle
                    {
                      OFFSET -0.25 -2.2 0.4
                      CHANNELS 6 Xposition Yposition Zposition Zrotation Xrotation Yrotation
                      JOINT LeftHandMiddle1
                      {
                        OFFSET 0 -8.3 1
                        CHANNELS 6 Xposition Yposition Zposition Zrotation Xrotation Yrotation
                        JOINT LeftHandMiddle2
                        {
                          OFFSET 0 -4.65 0
                          CHANNELS 6 Xposition Yposition Zposition Zrotation Xrotation Yrotation
                          JOINT LeftHandMiddle3
                          {
                            OFFSET 0 -3.3 0
                            CHANNELS 6 Xposition Yposition Zposition Zrotation Xrotation Yrotation
                            End Site
                            {
                              OFFSET 0 -2.7 0
                            }
                          }
                        }
                      }
                    }
                    JOINT LeftHandRing
                    {
                      OFFSET -0.5 -2.15 -0.8
                      CHANNELS 6 Xposition Yposition Zposition Zrotation Xrotation Yrotation
                      JOINT LeftHandRing1
                      {
                        OFFSET 0 -7.75 -0.2
                        CHANNELS 6 Xposition Yposition Zposition Zrotation Xrotation Yrotation
                        JOINT LeftHandRing2
                        {
                          OFFSET 0 -3.8 0
                          CHANNELS 6 Xposition Yposition Zposition Zrotation Xrotation Yrotation
                          JOINT LeftHandRing3
                          {
                            OFFSET 0 -3.4 0
                            CHANNELS 6 Xposition Yposition Zposition Zrotation Xrotation Yrotation
                            End Site
                            {
                              OFFSET 0 -2.6 0
                            }
                          }
                        }
                      }
                    }
                    JOINT LeftHandPinky
                    {
                      OFFSET -0.75 -1.75 -1.85
                      CHANNELS 6 Xposition Yposition Zposition Zrotation Xrotation Yrotation
                      JOINT LeftHandPinky1
                      {
                        OFFSET 0 -7.15 -1
                        CHANNELS 6 Xposition Yposition Zposition Zrotation Xrotation Yrotation
                        JOINT LeftHandPinky2
                        {
                          OFFSET 0 -3 0
                          CHANNELS 6 Xposition Yposition Zposition Zrotation Xrotation Yrotation
                          JOINT LeftHandPinky3
                          {
                            OFFSET 0 -2.35 0
                            CHANNELS 6 Xposition Yposition Zposition Zrotation Xrotation Yrotation
                            End Site
                            {
                              OFFSET 0 -2.1 0
                            }
                          }
                        }
                      }
                    }
                  }
                }
              }
            }
          }
          JOINT RightShoulder
          {
            OFFSET -5 17 0
            CHANNELS 6 Xposition Yposition Zposition Zrotation Xrotation Yrotation
            JOINT RightShoulder2
            {
              OFFSET -6.45 0 0
              CHANNELS 6 Xposition Yposition Zposition Zrotation Xrotation Yrotation
              JOINT RightArm
              {
                OFFSET -6.45 0 0
                CHANNELS 6 Xposition Yposition Zposition Zrotation Xrotation Yrotation
                JOINT RightForeArm
                {
                  OFFSET 0 -32.4 -2
                  CHANNELS 6 Xposition Yposition Zposition Zrotation Xrotation Yrotation
                  JOINT RightHand
                  {
                    OFFSET 0 -25.65 2
                    CHANNELS 6 Xposition Yposition Zposition Zrotation Xrotation Yrotation
                    JOINT RightHandThumb1
                    {
                      OFFSET 0.5 -1.5 2.65
                      CHANNELS 6 Xposition Yposition Zposition Zrotation Xrotation Yrotation
                      JOINT RightHandThumb2
                      {
                        OFFSET 0 -3.8 3.7
                        CHANNELS 6 Xposition Yposition Zposition Zrotation Xrotation Yrotation
                        JOINT RightHandThumb3
                        {
                          OFFSET 0 -3 2.7
                          CHANNELS 6 Xposition Yposition Zposition Zrotation Xrotation Yrotation
                          End Site
                          {
                            OFFSET 0 -2.3 1.8
                          }
                        }
                      }
                    }
                    JOINT RightHandIndex
                    {
                      OFFSET 0 -1.9 1.6
                      CHANNELS 6 Xposition Yposition Zposition Zrotation Xrotation Yrotation
                      JOINT RightHandIndex1
                      {
                        OFFSET 0 -8.3 1.9
                        CHANNELS 6 Xposition Yposition Zposition Zrotation Xrotation Yrotation
                        JOINT RightHandIndex2
                        {
                          OFFSET 0 -4.5 0
                          CHANNELS 6 Xposition Yposition Zposition Zrotation Xrotation Yrotation
                          JOINT RightHandIndex3
                          {
                            OFFSET 0 -3.4 0
                            CHANNELS 6 Xposition Yposition Zposition Zrotation Xrotation Yrotation
                            End Site
                            {
                              OFFSET 0 -2.6 0
                            }
                          }
                        }
                      }
                    }
                    JOINT RightHandMiddle
                    {
                      OFFSET 0.25 -2.2 0.4
                      CHANNELS 6 Xposition Yposition Zposition Zrotation Xrotation Yrotation
                      JOINT RightHandMiddle1
                      {
                        OFFSET 0 -8.3 1
                        CHANNELS 6 Xposition Yposition Zposition Zrotation Xrotation Yrotation
                        JOINT RightHandMiddle2
                        {
                          OFFSET 0 -4.65 0
                          CHANNELS 6 Xposition Yposition Zposition Zrotation Xrotation Yrotation
                          JOINT RightHandMiddle3
                          {
                            OFFSET 0 -3.3 0
                            CHANNELS 6 Xposition Yposition Zposition Zrotation Xrotation Yrotation
                            End Site
                            {
                              OFFSET 0 -2.7 0
                            }
                          }
                        }
                      }
                    }
                    JOINT RightHandRing
                    {
                      OFFSET 0.5 -2.15 -0.8
                      CHANNELS 6 Xposition Yposition Zposition Zrotation Xrotation Yrotation
                      JOINT RightHandRing1
                      {
                        OFFSET 0 -7.75 -0.2
                        CHANNELS 6 Xposition Yposition Zposition Zrotation Xrotation Yrotation
                        JOINT RightHandRing2
                        {
                          OFFSET 0 -3.8 0
                          CHANNELS 6 Xposition Yposition Zposition Zrotation Xrotation Yrotation
                          JOINT RightHandRing3
                          {
                            OFFSET 0 -3.4 0
                            CHANNELS 6 Xposition Yposition Zposition Zrotation Xrotation Yrotation
                            End Site
                            {
                              OFFSET 0 -2.6 0
                            }
                          }
                        }
                      }
                    }
                    JOINT RightHandPinky
                    {
                      OFFSET 0.75 -1.75 -1.85
                      CHANNELS 6 Xposition Yposition Zposition Zrotation Xrotation Yrotation
                      JOINT RightHandPinky1
                      {
                        OFFSET 0 -7.15 -1
                        CHANNELS 6 Xposition Yposition Zposition Zrotation Xrotation Yrotation
                        JOINT RightHandPinky2
                        {
                          OFFSET 0 -3 0
                          CHANNELS 6 Xposition Yposition Zposition Zrotation Xrotation Yrotation
                          JOINT RightHandPinky3
                          {
                            OFFSET 0 -2.35 0
                            CHANNELS 6 Xposition Yposition Zposition Zrotation Xrotation Yrotation
                            End Site
                            {
                              OFFSET 0 -2.1 0
                            }
                          }
                        }
                      }
                    }
                  }
                }
              }
            }
          }
        }
      }
    }
  }
  JOINT LeftUpLeg
  {
    OFFSET 8 0 0
    CHANNELS 6 Xposition Yposition Zposition Zrotation Xrotation Yrotation
    JOINT LeftLeg
    {
      OFFSET 0 -45 -1
      CHANNELS 6 Xposition Yposition Zposition Zrotation Xrotation Yrotation
      JOINT LeftFoot
      {
        OFFSET 0 -41 -2
        CHANNELS 6 Xposition Yposition Zposition Zrotation Xrotation Yrotation
        JOINT LeftToeBase
        {
          OFFSET 0 -7.5 12.5
          CHANNELS 6 Xposition Yposition Zposition Zrotation Xrotation Yrotation
          JOINT LeftFootToe
          {
            OFFSET 0 0 4
            CHANNELS 6 Xposition Yposition Zposition Zrotation Xrotation Yrotation
            End Site
            {
              OFFSET 0 0 0
            }
          }
        }
      }
    }
  }
  JOINT RightUpLeg
  {
    OFFSET -8 0 0
    CHANNELS 6 Xposition Yposition Zposition Zrotation Xrotation Yrotation
    JOINT RightLeg
    {
      OFFSET 0 -45 -1
      CHANNELS 6 Xposition Yposition Zposition Zrotation Xrotation Yrotation
      JOINT RightFoot
      {
        OFFSET -17.7327 -40.1844 -8.05833
        CHANNELS 6 Xposition Yposition Zposition Zrotation Xrotation Yrotation
        JOINT RightToeBase
        {
          OFFSET 0 -7.5 12.5
          CHANNELS 6 Xposition Yposition Zposition Zrotation Xrotation Yrotation
          JOINT RightFootToe
          {
            OFFSET 0 0 4
            CHANNELS 6 Xposition Yposition Zposition Zrotation Xrotation Yrotation
            End Site
            {
              OFFSET 0 0 0
            }
          }
        }
      }
    }
  }
}
MOTION
Frames:	3
Frame Time:	0.0111111
-243.822 75.5439 913.479 0.169138 0.206224 -166.281 0 8 1.13687e-13 5.37212 11.7506 -13.2494 0 8 -1.13687e-13 -0.957971 12.0198 5.18014 0 8 -1.13687e-13 -0.341148 6.04027 2.5589 -5.68434e-14 8 -1.13687e-13 -0.338054 6.00097 2.54203 0 17 1.13687e-13 -3.56313 -1.26177 -1.57046 0 10.8 -1.13687e-13 -8.37758 -2.79135 -3.78645 5 17 0 -8.68724 -3.46907 0.739375 6.45 -5.68434e-14 -1.13687e-13 -0.799089 0.333247 6.10698 6.45 -5.68434e-14 2.27374e-13 48.0965 27.8759 9.52734 2.84217e-14 -32.4 -2 -153.408 -54.0785 -167.836 2.84217e-14 -25.65 2 -7.12435 -12.2016 -18.865 -0.5 -1.5 2.65 2.50707 11.8059 -14.4057 -5.68434e-14 -3.8 3.7 -0.428889 15.5377 0.00393681 -1.13687e-13 -3 2.7 -0.11097 26.8924 0.131108 1.13687e-13 -1.9 1.6 3.18055e-15 1.59028e-15 -2.38542e-15 0 -8.3 1.9 -43.6636 -30.2507 -11.0414 1.13687e-13 -4.5 -8.52651e-14 -1.27222e-14 -0.000442352 7.95139e-15 -1.13687e-13 -3.4 -1.42109e-14 4.77088e-15 -0.000523553 4.77083e-15 -0.25 -2.2 0.4 3.18055e-15 1.59028e-15 -2.38542e-15 -5.68434e-14 -8.3 1 -49.7953 -25.4902 -8.77884 0 -4.65 0 -12.2805 -9.26834e-15 1.03368e-14 0 -3.3 -8.52651e-14 -79.1979 -0.202092 -0.341079 -0.5 -2.15 -0.8 3.18055e-15 1.59028e-15 -2.38542e-15 -5.68434e-14 -7.75 -0.2 -11.2684 3.79584 1.06452 0 -3.8 0 5.76533e-08 -0.000640627 0.00515634 5.68434e-14 -3.4 1.13687e-13 6.68755e-08 -0.000625475 0.00612604 -0.75 -1.75 -1.85 3.18055e-15 1.59028e-15 -2.38542e-15 -5.68434e-14 -7.15 -1 -4.60521 -16.3477 0.0633098 -1.13687e-13 -3 2.84217e-14 3.33342e-08 0.00296057 -0.000645116 0 -2.35 1.27898e-13 2.30046e-08 0.0020447 -0.000644625 -5 17 0 5.43006 -1.17188 1.33892 -6.45 0 1.13687e-13 -2.71237 0.434521 -5.02372 -6.45 5.68434e-14 1.13687e-13 -48.6499 -32.6456 26.3222 -1.13687e-13 -32.4 -2 -55.9379 -64.9971 -56.3154 0 -25.65 2 -1.8722 16.3132 7.93976 0.5 -1.5 2.65 16.4725 23.0983 0.936288 0 -3.8 3.7 2.43389 13.1955 -0.617025 1.13687e-13 -3 2.7 0.281352 42.5318 -0.234329 -1.13687e-13 -1.9 1.6 -1.59028e-14 -3.18055e-15 1.11319e-14 0 -8.3 1.9 18.9174 -0.106288 -0.112778 1.13687e-13 -4.5 0 6.3612e-15 -1.59028e-15 0.0032171 0 -3.4 5.68434e-14 3.18051e-15 7.95139e-16 0.00294706 0.25 -2.2 0.4 -1.59028e-14 -3.18055e-15 1.11319e-14 -1.13687e-13 -8.3 1 13.5669 -1.72556 -0.177211 0 -4.65 0 4.80055 0.00296608 0.0014674 1.13687e-13 -3.3 -2.84217e-14 4.50333 0.00267182 -0.00123265 0.5 -2.15 -0.8 -1.59028e-14 -3.18055e-15 1.11319e-14 2.27374e-13 -7.75 -0.2 20.0695 -10.9484 0.395093 1.13687e-13 -3.8 0 21.0818 -0.00244046 0.00234394 0 -3.4 -2.84217e-14 16.59 -0.0026886 0.00682627 0.75 -1.75 -1.85 -1.59028e-14 -3.18055e-15 1.11319e-14 2.27374e-13 -7.15 -1 41.3894 -24.5492 -0.448466 1.13687e-13 -3 -2.84217e-14 -0.000562497 -0.0100443 0.00373766 1.13687e-13 -2.35 -5.68434e-14 -0.000563346 -0.00302697 0.000539678 8 1.42109e-14 -1.13687e-13 -24.2257 -60.1241 -19.077 0 -45 -1 7.32621 62.175 -13.0347 0 -41 -2 1.68333 2.72819 -6.28201 2.84217e-14 -7.5 12.5 3.96669e-16 -10.5883 1.61782e-15 -5.68434e-14 0 4 13.1001 8.58792 43.8072 -8 2.84217e-14 1.13687e-13 -28.6685 -51.584 -42.0985 0 -45 -1 1.28289 67.6383 -2.03931 -17.7327 -40.1844 -8.05833 -4.55338 5.28747 -3.15045 2.84217e-14 -7.5 12.5 2.57971e-15 -16.3099 -4.97088e-15 -2.84217e-14 0 4 -7.70063 10.9433 41.8245 
-243.822 75.5439 913.479 0.169138 0.206224 -166.281 0 8 1.13687e-13 5.37687 11.735 -13.2736 0 8 -3.41061e-13 -0.952751 12.0624 5.2201 0 8 -1.13687e-13 -0.337005 6.06182 2.57884 0 8 -2.27374e-13 -0.333893 6.02205 2.5617 5.68434e-14 17 1.13687e-13 -3.52273 -1.2618 -1.61141 -5.68434e-14 10.8 -2.27374e-13 -8.2843 -2.78706 -3.88058 5 17 -1.13687e-13 -8.66208 -3.44938 0.692165 6.45 -5.68434e-14 0 -0.806492 0.348107 6.13011 6.45 -5.68434e-14 1.13687e-13 48.0045 27.9515 9.44736 0 -32.4 -2 -153.682 -53.985 -168.482 5.68434e-14 -25.65 2 -7.07826 -12.1462 -18.8034 -0.5 -1.5 2.65 2.67705 11.7716 -14.1585 -5.68434e-14 -3.8 3.7 -0.391201 16.0402 0.00418307 -5.68434e-14 -3 2.7 -0.105222 27.5404 0.130553 5.68434e-14 -1.9 1.6 6.62086e-32 4.77083e-15 -7.95139e-16 0 -8.3 1.9 -45.7735 -29.9074 -11.4773 1.13687e-13 -4.5 -8.52651e-14 -1.11319e-14 -0.000438966 7.95139e-15 -1.13687e-13 -3.4 4.26326e-14 1.59032e-15 -0.000520084 4.77083e-15 -0.25 -2.2 0.4 6.62086e-32 4.77083e-15 -7.95139e-16 -1.13687e-13 -8.3 1 -51.7617 -25.0411 -8.94341 0 -4.65 -4.26326e-14 -12.2805 -3.37934e-15 1.59028e-15 2.27374e-13 -3.3 -2.84217e-14 -81.6769 -0.0758311 -0.213148 -0.5 -2.15 -0.8 6.62086e-32 4.77083e-15 -7.95139e-16 0 -7.75 -0.2 -11.3689 4.04026 1.09761 0 -3.8 -1.13687e-13 5.90768e-08 -0.000645467 0.00524403 -5.68434e-14 -3.4 0 6.82964e-08 -0.000630329 0.00620802 -0.75 -1.75 -1.85 6.62086e-32 4.77083e-15 -7.95139e-16 5.68434e-14 -7.15 -1 -5.35274 -17.5416 -0.00620506 0 -3 7.10543e-14 3.37981e-08 0.0029939 -0.000646812 -5.68434e-14 -2.35 8.52651e-14 2.33111e-08 0.00206651 -0.00064632 -5 17 -1.13687e-13 5.47194 -1.20343 1.32221 -6.45 -1.13687e-13 1.13687e-13 -2.71253 0.433126 -5.028 -6.45 -5.68434e-14 0 -48.7096 -32.4844 26.3533 -1.13687e-13 -32.4 -2 -56.3288 -65.062 -56.6934 1.13687e-13 -25.65 2 -1.84775 16.3217 7.89638 0.5 -1.5 2.65 16.4442 23.0674 0.954436 -1.13687e-13 -3.8 3.7 2.43509 13.1764 -0.617 1.13687e-13 -3 2.7 0.281815 42.556 -0.234594 0 -1.9 1.6 -6.36111e-15 -9.54166e-15 7.15625e-15 -1.13687e-13 -8.3 1.9 18.8981 -0.0976845 -0.113942 1.13687e-13 -4.5 0 9.54184e-15 -3.18055e-15 0.0032171 0 -3.4 5.68434e-14 3.18019e-15 7.15625e-15 0.00294706 0.25 -2.2 0.4 -6.36111e-15 -9.54166e-15 7.15625e-15 -2.27374e-13 -8.3 1 13.5472 -1.72702 -0.177129 0 -4.65 0 4.78446 0.00296608 0.0014674 1.13687e-13 -3.3 0 4.48914 0.00267182 -0.00123265 0.5 -2.15 -0.8 -6.36111e-15 -9.54166e-15 7.15625e-15 2.27374e-13 -7.75 -0.2 20.0354 -10.9441 0.395218 1.13687e-13 -3.8 -2.84217e-14 21.1269 -0.0024487 0.00234394 0 -3.4 -2.84217e-14 16.619 -0.00270803 0.00682627 0.75 -1.75 -1.85 -6.36111e-15 -9.54166e-15 7.15625e-15 1.13687e-13 -7.15 -1 41.4096 -24.5144 -0.43703 0 -3 -2.84217e-14 -0.00055808 -0.0100443 0.00373766 1.13687e-13 -2.35 -5.68434e-14 -0.000558927 -0.00302697 0.000539678 8 1.42109e-14 -1.13687e-13 -24.2257 -60.1241 -19.077 0 -45 -1 7.32621 62.175 -13.0347 0 -41 -2 1.68333 2.72819 -6.28201 2.84217e-14 -7.5 12.5 3.92391e-16 -10.4393 1.61704e-15 -5.68434e-14 -2.84217e-14 4 13.0604 8.44131 43.8454 -8 2.84217e-14 1.13687e-13 -28.6685 -51.584 -42.0985 0 -45 -1 1.28289 67.6383 -2.03931 -17.7327 -40.1844 -8.05833 -4.55338 5.28747 -3.15045 2.84217e-14 -7.5 12.5 2.57242e-15 -16.3905 -4.97293e-15 -2.84217e-14 0 4 -7.68591 11.0284 41.8335 
-243.822 75.5439 913.479 0.169138 0.206224 -166.281 0 8 1.13687e-13 5.37968 11.7213 -13.2904 -5.68434e-14 8 -2.27374e-13 -0.944013 12.0982 5.24984 0 8 -1.13687e-13 -0.33143 6.0799 2.59381 -5.68434e-14 8 -2.27374e-13 -0.328319 6.03974 2.57646 1.13687e-13 17 1.13687e-13 -3.4784 -1.25728 -1.65396 -5.68434e-14 10.8 -1.13687e-13 -8.18173 -2.77444 -3.97801 5 17 0 -8.63241 -3.42614 0.644804 6.45 -5.68434e-14 1.13687e-13 -0.816546 0.36432 6.15577 6.45 0 1.13687e-13 47.9002 28.0183 9.3867 2.84217e-14 -32.4 -2 -153.9 -53.9068 -169.114 1.7053e-13 -25.65 2 -7.03232 -12.0909 -18.7419 -0.5 -1.5 2.65 2.76323 11.844 -14.0487 -5.68434e-14 -3.8 3.7 -0.36751 16.4905 0.00441377 -5.68434e-14 -3 2.7 -0.102282 28.0466 0.126882 5.68434e-14 -1.9 1.6 6.36111e-15 1.59028e-15 -3.97569e-15 -5.68434e-14 -8.3 1.9 -47.8495 -29.6048 -11.9249 0 -4.5 -9.9476e-14 -9.54159e-15 -0.000435594 9.54166e-15 0 -3.4 0 4.30179e-20 -0.000516628 4.77083e-15 -0.25 -2.2 0.4 6.36111e-15 1.59028e-15 -3.97569e-15 -1.13687e-13 -8.3 1 -53.7653 -24.6402 -9.13822 -2.27374e-13 -4.65 0 -12.2805 -5.81445e-15 7.95139e-16 2.27374e-13 -3.3 -5.68434e-14 -83.2971 0.0804165 -0.0844701 -0.5 -2.15 -0.8 6.36111e-15 1.59028e-15 -3.97569e-15 -5.68434e-14 -7.75 -0.2 -11.4401 4.21418 1.1189 0 -3.8 -5.68434e-14 6.04312e-08 -0.000649435 0.00533148 5.68434e-14 -3.4 -5.68434e-14 6.96367e-08 -0.000634325 0.00628997 -0.75 -1.75 -1.85 6.36111e-15 1.59028e-15 -3.97569e-15 -5.68434e-14 -7.15 -1 -6.18959 -18.8912 -0.0996095 -5.68434e-14 -3 7.10543e-14 3.42602e-08 0.00302728 -0.000648424 0 -2.35 1.13687e-13 2.36159e-08 0.00208833 -0.000647931 -5 17 -1.13687e-13 5.51755 -1.23741 1.2974 -6.45 -1.13687e-13 1.13687e-13 -2.71258 0.431402 -5.03145 -6.45 5.68434e-14 -1.13687e-13 -48.7767 -32.3319 26.3709 0 -32.4 -2 -56.6839 -65.1399 -57.0423 0 -25.65 2 -1.83459 16.3163 7.86826 0.5 -1.5 2.65 16.4304 23.0442 0.97211 1.13687e-13 -3.8 3.7 2.43615 13.143 -0.616938 0 -3 2.7 0.282305 42.5854 -0.234879 -1.13687e-13 -1.9 1.6 -9.54166e-15 -7.95139e-15 2.38542e-15 0 -8.3 1.9 18.8904 -0.0923453 -0.115135 1.13687e-13 -4.5 2.84217e-14 5.35755e-19 -9.54166e-15 0.0032171 0 -3.4 8.52651e-14 -9.54175e-15 1.59028e-15 0.00294706 0.25 -2.2 0.4 -9.54166e-15 -7.95139e-15 2.38542e-15 0 -8.3 1 13.531 -1.72794 -0.177038 1.13687e-13 -4.65 -1.42109e-14 4.75045 0.00296608 0.0014674 -1.13687e-13 -3.3 -4.26326e-14 4.45912 0.00267182 -0.00123265 0.5 -2.15 -0.8 -9.54166e-15 -7.95139e-15 2.38542e-15 2.27374e-13 -7.75 -0.2 20.0102 -10.9543 0.395121 0 -3.8 -2.84217e-14 21.1702 -0.00245694 0.00234394 0 -3.4 -2.84217e-14 16.6468 -0.00270803 0.00682627 0.75 -1.75 -1.85 -9.54166e-15 -7.95139e-15 2.38542e-15 1.13687e-13 -7.15 -1 41.4228 -24.481 -0.427691 0 -3 0 -0.000553528 -0.0100443 0.00373766 0 -2.35 -5.68434e-14 -0.000554374 -0.00302697 0.000539678 8 1.42109e-14 -1.13687e-13 -24.2257 -60.1241 -19.077 0 -45 -1 7.32621 62.175 -13.0347 0 -41 -2 1.68333 2.72819 -6.28201 2.84217e-14 -7.5 12.5 3.87965e-16 -10.285 1.61625e-15 -7.10543e-14 0 4 13.0372 8.29085 43.8839 -8 2.84217e-14 1.13687e-13 -28.6685 -51.584 -42.0985 0 -45 -1 1.28289 67.6383 -2.03931 -17.7327 -40.1844 -8.05833 -4.55338 5.28747 -3.15045 2.84217e-14 -7.5 12.5 2.56906e-15 -16.4276 -4.97388e-15 -2.84217e-14 -1.77636e-15 4 -7.66801 11.0655 41.8396 
